<mxfile host="app.diagrams.net" modified="2023-10-27T10:41:32.085Z" agent="Mozilla/5.0 (X11; Ubuntu; Linux x86_64; rv:109.0) Gecko/20100101 Firefox/118.0" etag="_w7ow-rQgmH4cHBnFJcv" version="22.0.8" type="device">
  <diagram id="j4bMaCxepGLSCkWRoL51" name="StrÃ¡nka-1">
    <mxGraphModel dx="2940" dy="1312" grid="1" gridSize="5" guides="1" tooltips="1" connect="1" arrows="1" fold="1" page="1" pageScale="1" pageWidth="100" pageHeight="100" math="0" shadow="0">
      <root>
        <mxCell id="0" />
        <mxCell id="1" parent="0" />
        <mxCell id="5HeQNC9SgE1nZ3gUrSCK-84" value="" style="edgeStyle=orthogonalEdgeStyle;rounded=0;orthogonalLoop=1;jettySize=auto;html=1;entryX=1;entryY=0.5;entryDx=0;entryDy=0;exitX=0;exitY=0.5;exitDx=0;exitDy=0;" parent="1" source="GB7mApdc-Wd5zaGxchms-2" target="5HeQNC9SgE1nZ3gUrSCK-83" edge="1">
          <mxGeometry relative="1" as="geometry">
            <mxPoint x="385" y="300" as="sourcePoint" />
            <Array as="points">
              <mxPoint x="460" y="300" />
              <mxPoint x="460" y="345" />
            </Array>
          </mxGeometry>
        </mxCell>
        <mxCell id="6BN7QqZ1zRN99hFNwnGD-18" style="edgeStyle=orthogonalEdgeStyle;rounded=0;orthogonalLoop=1;jettySize=auto;html=1;exitX=0;exitY=0.5;exitDx=0;exitDy=0;entryX=1;entryY=0.5;entryDx=0;entryDy=0;" parent="1" source="FHfti17-AyHW7Ny-__9g-4" target="6BN7QqZ1zRN99hFNwnGD-13" edge="1">
          <mxGeometry relative="1" as="geometry">
            <Array as="points">
              <mxPoint x="455" y="375" />
              <mxPoint x="455" y="420" />
            </Array>
          </mxGeometry>
        </mxCell>
        <mxCell id="6BN7QqZ1zRN99hFNwnGD-36" style="edgeStyle=orthogonalEdgeStyle;rounded=0;orthogonalLoop=1;jettySize=auto;html=1;exitX=0;exitY=0.5;exitDx=0;exitDy=0;entryX=1;entryY=0.5;entryDx=0;entryDy=0;" parent="1" source="FHfti17-AyHW7Ny-__9g-10" target="6BN7QqZ1zRN99hFNwnGD-35" edge="1">
          <mxGeometry relative="1" as="geometry">
            <mxPoint x="230" y="580" as="targetPoint" />
          </mxGeometry>
        </mxCell>
        <mxCell id="y7l_Vf18f22PjJahQDfY-20" value="If there is atleast 1 parent " style="text;html=1;align=left;verticalAlign=middle;resizable=0;points=[];autosize=1;" parent="1" vertex="1">
          <mxGeometry x="-352.5" y="125" width="160" height="30" as="geometry" />
        </mxCell>
        <mxCell id="y7l_Vf18f22PjJahQDfY-25" value="If ACK received" style="text;html=1;align=left;verticalAlign=middle;resizable=0;points=[];autosize=1;" parent="1" vertex="1">
          <mxGeometry x="1265" y="700" width="105" height="30" as="geometry" />
        </mxCell>
        <mxCell id="y7l_Vf18f22PjJahQDfY-27" value="Consume events" style="text;html=1;align=left;verticalAlign=middle;resizable=0;points=[];autosize=1;" parent="1" vertex="1">
          <mxGeometry x="860" y="110" width="110" height="30" as="geometry" />
        </mxCell>
        <mxCell id="6BN7QqZ1zRN99hFNwnGD-26" style="edgeStyle=orthogonalEdgeStyle;rounded=0;orthogonalLoop=1;jettySize=auto;html=1;exitX=0;exitY=0.5;exitDx=0;exitDy=0;entryX=1;entryY=0.5;entryDx=0;entryDy=0;" parent="1" source="y7l_Vf18f22PjJahQDfY-29" target="6BN7QqZ1zRN99hFNwnGD-25" edge="1">
          <mxGeometry relative="1" as="geometry" />
        </mxCell>
        <mxCell id="5HeQNC9SgE1nZ3gUrSCK-66" value="" style="edgeStyle=orthogonalEdgeStyle;rounded=0;orthogonalLoop=1;jettySize=auto;html=1;" parent="1" source="y7l_Vf18f22PjJahQDfY-35" target="FHfti17-AyHW7Ny-__9g-4" edge="1">
          <mxGeometry relative="1" as="geometry">
            <Array as="points">
              <mxPoint x="665" y="340" />
              <mxPoint x="665" y="375" />
            </Array>
          </mxGeometry>
        </mxCell>
        <mxCell id="y7l_Vf18f22PjJahQDfY-35" value="TX: beacon" style="rounded=0;whiteSpace=wrap;html=1;rotation=0;" parent="1" vertex="1">
          <mxGeometry x="695" y="315" width="60" height="50" as="geometry" />
        </mxCell>
        <mxCell id="5HeQNC9SgE1nZ3gUrSCK-70" value="" style="edgeStyle=orthogonalEdgeStyle;rounded=0;orthogonalLoop=1;jettySize=auto;html=1;" parent="1" source="y7l_Vf18f22PjJahQDfY-39" target="y7l_Vf18f22PjJahQDfY-29" edge="1">
          <mxGeometry relative="1" as="geometry" />
        </mxCell>
        <mxCell id="y7l_Vf18f22PjJahQDfY-39" value="RX: wait for Child beacon" style="rounded=0;whiteSpace=wrap;html=1;rotation=0;" parent="1" vertex="1">
          <mxGeometry x="695" y="510" width="60" height="50" as="geometry" />
        </mxCell>
        <mxCell id="6BN7QqZ1zRN99hFNwnGD-1" style="edgeStyle=orthogonalEdgeStyle;rounded=0;orthogonalLoop=1;jettySize=auto;html=1;exitX=0;exitY=0.5;exitDx=0;exitDy=0;exitPerimeter=0;entryX=0.5;entryY=0;entryDx=0;entryDy=0;" parent="1" source="5HeQNC9SgE1nZ3gUrSCK-7" target="5HeQNC9SgE1nZ3gUrSCK-11" edge="1">
          <mxGeometry relative="1" as="geometry" />
        </mxCell>
        <mxCell id="5HeQNC9SgE1nZ3gUrSCK-7" value="&lt;div&gt;event&lt;/div&gt;&lt;div&gt;QUEUE&lt;/div&gt;" style="shape=cylinder3;whiteSpace=wrap;html=1;boundedLbl=1;backgroundOutline=1;size=15;" parent="1" vertex="1">
          <mxGeometry x="970" y="100" width="60" height="80" as="geometry" />
        </mxCell>
        <mxCell id="5HeQNC9SgE1nZ3gUrSCK-9" value="receiveSerialData" style="text;html=1;align=left;verticalAlign=middle;resizable=0;points=[];autosize=1;" parent="1" vertex="1">
          <mxGeometry x="1040" y="110" width="120" height="30" as="geometry" />
        </mxCell>
        <mxCell id="HoXzTngkFjWCqknKsVJu-29" style="edgeStyle=orthogonalEdgeStyle;rounded=0;orthogonalLoop=1;jettySize=auto;html=1;exitX=0.5;exitY=1;exitDx=0;exitDy=0;entryX=0.5;entryY=0;entryDx=0;entryDy=0;" parent="1" source="5HeQNC9SgE1nZ3gUrSCK-11" target="GB7mApdc-Wd5zaGxchms-9" edge="1">
          <mxGeometry relative="1" as="geometry" />
        </mxCell>
        <mxCell id="5HeQNC9SgE1nZ3gUrSCK-11" value="&lt;div&gt;connectedIdle&lt;/div&gt;" style="rounded=1;whiteSpace=wrap;html=1;fillColor=#f5f5f5;fontColor=#333333;strokeColor=#666666;" parent="1" vertex="1">
          <mxGeometry x="760" y="170" width="120" height="60" as="geometry" />
        </mxCell>
        <mxCell id="5HeQNC9SgE1nZ3gUrSCK-26" value="" style="swimlane;startSize=0;" parent="1" vertex="1">
          <mxGeometry x="470" y="250" width="185" height="795" as="geometry" />
        </mxCell>
        <mxCell id="5HeQNC9SgE1nZ3gUrSCK-60" style="edgeStyle=orthogonalEdgeStyle;rounded=0;orthogonalLoop=1;jettySize=auto;html=1;exitX=1;exitY=0.75;exitDx=0;exitDy=0;endArrow=oval;endFill=1;" parent="5HeQNC9SgE1nZ3gUrSCK-26" source="5HeQNC9SgE1nZ3gUrSCK-34" edge="1">
          <mxGeometry relative="1" as="geometry">
            <mxPoint x="170" y="925" as="targetPoint" />
          </mxGeometry>
        </mxCell>
        <mxCell id="5HeQNC9SgE1nZ3gUrSCK-34" value="&lt;div&gt;transmitting&lt;/div&gt;&lt;div&gt;OTAARegReq&lt;/div&gt;" style="rounded=1;whiteSpace=wrap;html=1;fillColor=#f5f5f5;fontColor=#333333;strokeColor=#666666;" parent="5HeQNC9SgE1nZ3gUrSCK-26" vertex="1">
          <mxGeometry x="30" y="718.75" width="120" height="60" as="geometry" />
        </mxCell>
        <mxCell id="FHfti17-AyHW7Ny-__9g-10" value="waitFor&lt;br&gt;ParentBeacon" style="rounded=1;whiteSpace=wrap;html=1;fillColor=#f5f5f5;fontColor=#333333;strokeColor=#666666;" parent="5HeQNC9SgE1nZ3gUrSCK-26" vertex="1">
          <mxGeometry x="30" y="380" width="120" height="60" as="geometry" />
        </mxCell>
        <mxCell id="y7l_Vf18f22PjJahQDfY-29" value="waitFor&lt;br&gt;ChildBeacon" style="rounded=1;whiteSpace=wrap;html=1;fillColor=#f5f5f5;fontColor=#333333;strokeColor=#666666;" parent="5HeQNC9SgE1nZ3gUrSCK-26" vertex="1">
          <mxGeometry x="30" y="255" width="120" height="60" as="geometry" />
        </mxCell>
        <mxCell id="FHfti17-AyHW7Ny-__9g-4" value="transmitting&lt;br&gt;Beacon" style="rounded=1;whiteSpace=wrap;html=1;fillColor=#f5f5f5;fontColor=#333333;strokeColor=#666666;" parent="5HeQNC9SgE1nZ3gUrSCK-26" vertex="1">
          <mxGeometry x="30" y="95" width="120" height="60" as="geometry" />
        </mxCell>
        <mxCell id="5HeQNC9SgE1nZ3gUrSCK-45" value="If request sent" style="text;html=1;align=left;verticalAlign=middle;resizable=0;points=[];autosize=1;" parent="5HeQNC9SgE1nZ3gUrSCK-26" vertex="1">
          <mxGeometry x="150" y="720" width="100" height="30" as="geometry" />
        </mxCell>
        <mxCell id="XbEz7QA7JHCAoe-RFgPI-10" value="&lt;div&gt;receivingData&lt;/div&gt;" style="rounded=1;whiteSpace=wrap;html=1;fillColor=#f8cecc;strokeColor=#b85450;" parent="5HeQNC9SgE1nZ3gUrSCK-26" vertex="1">
          <mxGeometry x="30" y="565" width="120" height="60" as="geometry" />
        </mxCell>
        <mxCell id="GB7mApdc-Wd5zaGxchms-2" value="transmitting CRW&lt;br&gt;Beacon" style="rounded=1;whiteSpace=wrap;html=1;fillColor=#f5f5f5;fontColor=#333333;strokeColor=#666666;" parent="5HeQNC9SgE1nZ3gUrSCK-26" vertex="1">
          <mxGeometry x="30" y="20" width="120" height="60" as="geometry" />
        </mxCell>
        <mxCell id="5HeQNC9SgE1nZ3gUrSCK-27" value="MMTYPES" style="text;html=1;align=left;verticalAlign=middle;resizable=0;points=[];autosize=1;rotation=0;" parent="1" vertex="1">
          <mxGeometry x="470" y="230" width="80" height="30" as="geometry" />
        </mxCell>
        <mxCell id="5HeQNC9SgE1nZ3gUrSCK-31" value="" style="endArrow=classic;html=1;rounded=0;entryX=1;entryY=0.5;entryDx=0;entryDy=0;exitX=0.833;exitY=0.992;exitDx=0;exitDy=0;entryPerimeter=0;exitPerimeter=0;" parent="1" source="5HeQNC9SgE1nZ3gUrSCK-11" target="y7l_Vf18f22PjJahQDfY-39" edge="1">
          <mxGeometry width="50" height="50" relative="1" as="geometry">
            <mxPoint x="985" y="230" as="sourcePoint" />
            <mxPoint x="755" y="540" as="targetPoint" />
            <Array as="points">
              <mxPoint x="860" y="250" />
              <mxPoint x="1100" y="250" />
              <mxPoint x="1100" y="390" />
              <mxPoint x="1100" y="535" />
            </Array>
          </mxGeometry>
        </mxCell>
        <mxCell id="5HeQNC9SgE1nZ3gUrSCK-32" value="" style="endArrow=classic;html=1;rounded=0;entryX=1;entryY=0.5;entryDx=0;entryDy=0;exitX=1;exitY=0.75;exitDx=0;exitDy=0;" parent="1" source="5HeQNC9SgE1nZ3gUrSCK-11" target="5HeQNC9SgE1nZ3gUrSCK-75" edge="1">
          <mxGeometry width="50" height="50" relative="1" as="geometry">
            <mxPoint x="1005" y="215" as="sourcePoint" />
            <mxPoint x="880" y="660" as="targetPoint" />
            <Array as="points">
              <mxPoint x="1115" y="215" />
              <mxPoint x="1115" y="440" />
              <mxPoint x="1115" y="660" />
            </Array>
          </mxGeometry>
        </mxCell>
        <mxCell id="5HeQNC9SgE1nZ3gUrSCK-59" style="edgeStyle=orthogonalEdgeStyle;rounded=0;orthogonalLoop=1;jettySize=auto;html=1;entryX=0.5;entryY=1;entryDx=0;entryDy=0;exitX=0.5;exitY=1;exitDx=0;exitDy=0;" parent="1" source="5HeQNC9SgE1nZ3gUrSCK-36" target="5HeQNC9SgE1nZ3gUrSCK-50" edge="1">
          <mxGeometry relative="1" as="geometry">
            <Array as="points">
              <mxPoint x="1260" y="1175" />
              <mxPoint x="-355" y="1175" />
            </Array>
            <mxPoint x="1035" y="1145" as="sourcePoint" />
          </mxGeometry>
        </mxCell>
        <mxCell id="XbEz7QA7JHCAoe-RFgPI-7" style="edgeStyle=orthogonalEdgeStyle;rounded=0;orthogonalLoop=1;jettySize=auto;html=1;exitX=0.5;exitY=0;exitDx=0;exitDy=0;entryX=0.5;entryY=1;entryDx=0;entryDy=0;" parent="1" source="5HeQNC9SgE1nZ3gUrSCK-36" target="5HeQNC9SgE1nZ3gUrSCK-93" edge="1">
          <mxGeometry relative="1" as="geometry" />
        </mxCell>
        <mxCell id="M-iJREP47J18VLFSSXu6-1" style="edgeStyle=orthogonalEdgeStyle;rounded=0;orthogonalLoop=1;jettySize=auto;html=1;exitX=0.25;exitY=1;exitDx=0;exitDy=0;entryX=0.5;entryY=1;entryDx=0;entryDy=0;" parent="1" source="5HeQNC9SgE1nZ3gUrSCK-36" target="XbEz7QA7JHCAoe-RFgPI-1" edge="1">
          <mxGeometry relative="1" as="geometry">
            <Array as="points">
              <mxPoint x="1230" y="1135" />
              <mxPoint x="905" y="1135" />
            </Array>
          </mxGeometry>
        </mxCell>
        <mxCell id="5HeQNC9SgE1nZ3gUrSCK-36" value="&lt;div&gt;waitForRequest&lt;br&gt;ConnectionAnswer&lt;br&gt;&lt;/div&gt;" style="rounded=1;whiteSpace=wrap;html=1;fillColor=#f5f5f5;fontColor=#333333;strokeColor=#666666;" parent="1" vertex="1">
          <mxGeometry x="1200" y="968.75" width="120" height="60" as="geometry" />
        </mxCell>
        <mxCell id="5HeQNC9SgE1nZ3gUrSCK-39" value="" style="edgeStyle=orthogonalEdgeStyle;rounded=0;orthogonalLoop=1;jettySize=auto;html=1;" parent="1" source="5HeQNC9SgE1nZ3gUrSCK-37" target="5HeQNC9SgE1nZ3gUrSCK-36" edge="1">
          <mxGeometry relative="1" as="geometry" />
        </mxCell>
        <mxCell id="5HeQNC9SgE1nZ3gUrSCK-37" value="&amp;nbsp;RX: wait for parent connection confirmation" style="rounded=0;whiteSpace=wrap;html=1;" parent="1" vertex="1">
          <mxGeometry x="1050" y="967.5" width="120" height="62.5" as="geometry" />
        </mxCell>
        <mxCell id="5HeQNC9SgE1nZ3gUrSCK-42" value="&lt;div&gt;If CRW &lt;br&gt;&lt;/div&gt;&lt;div&gt;received&lt;/div&gt;" style="text;html=1;align=left;verticalAlign=middle;resizable=0;points=[];autosize=1;" parent="1" vertex="1">
          <mxGeometry x="175" y="905" width="65" height="45" as="geometry" />
        </mxCell>
        <mxCell id="5HeQNC9SgE1nZ3gUrSCK-48" value="" style="edgeStyle=orthogonalEdgeStyle;rounded=0;orthogonalLoop=1;jettySize=auto;html=1;entryX=0;entryY=0.5;entryDx=0;entryDy=0;" parent="1" source="5HeQNC9SgE1nZ3gUrSCK-44" target="5HeQNC9SgE1nZ3gUrSCK-34" edge="1">
          <mxGeometry relative="1" as="geometry" />
        </mxCell>
        <mxCell id="5HeQNC9SgE1nZ3gUrSCK-44" value="TX: request to connect to the parent" style="rounded=0;whiteSpace=wrap;html=1;" parent="1" vertex="1">
          <mxGeometry x="400" y="965" width="60" height="67.5" as="geometry" />
        </mxCell>
        <mxCell id="5HeQNC9SgE1nZ3gUrSCK-57" value="" style="edgeStyle=orthogonalEdgeStyle;rounded=0;orthogonalLoop=1;jettySize=auto;html=1;entryX=0;entryY=0.5;entryDx=0;entryDy=0;exitX=1;exitY=0.5;exitDx=0;exitDy=0;" parent="1" source="5HeQNC9SgE1nZ3gUrSCK-50" target="5HeQNC9SgE1nZ3gUrSCK-71" edge="1">
          <mxGeometry relative="1" as="geometry">
            <mxPoint x="-30" y="784.9999999999998" as="targetPoint" />
          </mxGeometry>
        </mxCell>
        <mxCell id="6BN7QqZ1zRN99hFNwnGD-3" style="edgeStyle=orthogonalEdgeStyle;rounded=0;orthogonalLoop=1;jettySize=auto;html=1;exitX=0.5;exitY=0;exitDx=0;exitDy=0;entryX=0;entryY=0.5;entryDx=0;entryDy=0;" parent="1" source="5HeQNC9SgE1nZ3gUrSCK-50" target="6BN7QqZ1zRN99hFNwnGD-2" edge="1">
          <mxGeometry relative="1" as="geometry">
            <Array as="points">
              <mxPoint x="-355" y="150" />
            </Array>
          </mxGeometry>
        </mxCell>
        <mxCell id="5HeQNC9SgE1nZ3gUrSCK-50" value="&lt;div&gt;idleState&lt;/div&gt;" style="rounded=1;whiteSpace=wrap;html=1;fillColor=#f5f5f5;fontColor=#333333;strokeColor=#666666;" parent="1" vertex="1">
          <mxGeometry x="-415" y="915" width="120" height="60" as="geometry" />
        </mxCell>
        <mxCell id="5HeQNC9SgE1nZ3gUrSCK-56" value="" style="edgeStyle=orthogonalEdgeStyle;rounded=0;orthogonalLoop=1;jettySize=auto;html=1;exitX=1;exitY=0.25;exitDx=0;exitDy=0;" parent="1" source="5HeQNC9SgE1nZ3gUrSCK-51" target="5HeQNC9SgE1nZ3gUrSCK-44" edge="1">
          <mxGeometry relative="1" as="geometry">
            <Array as="points">
              <mxPoint x="165" y="945" />
              <mxPoint x="430" y="945" />
            </Array>
          </mxGeometry>
        </mxCell>
        <mxCell id="vFeREoI47Vu6DbmaeEEL-10" style="edgeStyle=orthogonalEdgeStyle;rounded=0;orthogonalLoop=1;jettySize=auto;html=1;exitX=0.5;exitY=1;exitDx=0;exitDy=0;endArrow=oval;endFill=1;" parent="1" source="5HeQNC9SgE1nZ3gUrSCK-51" edge="1">
          <mxGeometry relative="1" as="geometry">
            <mxPoint x="105" y="1175" as="targetPoint" />
            <Array as="points">
              <mxPoint x="105" y="1175" />
            </Array>
          </mxGeometry>
        </mxCell>
        <mxCell id="5HeQNC9SgE1nZ3gUrSCK-51" value="searchParent" style="rounded=1;whiteSpace=wrap;html=1;fillColor=#f5f5f5;fontColor=#333333;strokeColor=#666666;" parent="1" vertex="1">
          <mxGeometry x="45" y="915" width="120" height="60" as="geometry" />
        </mxCell>
        <mxCell id="5HeQNC9SgE1nZ3gUrSCK-58" value="&lt;div align=&quot;left&quot;&gt;If no parents&lt;br&gt;&lt;/div&gt;" style="text;html=1;align=left;verticalAlign=middle;resizable=0;points=[];autosize=1;" parent="1" vertex="1">
          <mxGeometry x="-230" y="920" width="90" height="30" as="geometry" />
        </mxCell>
        <mxCell id="5HeQNC9SgE1nZ3gUrSCK-65" value="" style="edgeStyle=orthogonalEdgeStyle;rounded=0;orthogonalLoop=1;jettySize=auto;html=1;" parent="1" edge="1">
          <mxGeometry relative="1" as="geometry">
            <mxPoint x="665" y="340" as="sourcePoint" />
            <mxPoint x="620" y="300" as="targetPoint" />
            <Array as="points">
              <mxPoint x="665" y="300" />
            </Array>
          </mxGeometry>
        </mxCell>
        <mxCell id="5HeQNC9SgE1nZ3gUrSCK-74" value="" style="edgeStyle=orthogonalEdgeStyle;rounded=0;orthogonalLoop=1;jettySize=auto;html=1;" parent="1" source="5HeQNC9SgE1nZ3gUrSCK-71" target="5HeQNC9SgE1nZ3gUrSCK-51" edge="1">
          <mxGeometry relative="1" as="geometry" />
        </mxCell>
        <mxCell id="5HeQNC9SgE1nZ3gUrSCK-71" value="RX: listen for CRW beacons" style="rounded=0;whiteSpace=wrap;html=1;" parent="1" vertex="1">
          <mxGeometry x="-80" y="917.5" width="60" height="55" as="geometry" />
        </mxCell>
        <mxCell id="5HeQNC9SgE1nZ3gUrSCK-77" value="" style="edgeStyle=orthogonalEdgeStyle;rounded=0;orthogonalLoop=1;jettySize=auto;html=1;entryX=1;entryY=0.5;entryDx=0;entryDy=0;" parent="1" source="5HeQNC9SgE1nZ3gUrSCK-75" target="FHfti17-AyHW7Ny-__9g-10" edge="1">
          <mxGeometry relative="1" as="geometry">
            <mxPoint x="620" y="580" as="targetPoint" />
          </mxGeometry>
        </mxCell>
        <mxCell id="5HeQNC9SgE1nZ3gUrSCK-75" value="RX: wait for Parent beacon" style="rounded=0;whiteSpace=wrap;html=1;rotation=0;" parent="1" vertex="1">
          <mxGeometry x="695" y="635" width="60" height="50" as="geometry" />
        </mxCell>
        <mxCell id="vFeREoI47Vu6DbmaeEEL-50" style="edgeStyle=orthogonalEdgeStyle;rounded=0;orthogonalLoop=1;jettySize=auto;html=1;exitX=0.5;exitY=0;exitDx=0;exitDy=0;endArrow=oval;endFill=1;" parent="1" source="vFeREoI47Vu6DbmaeEEL-56" edge="1">
          <mxGeometry relative="1" as="geometry">
            <mxPoint x="170" y="185" as="targetPoint" />
          </mxGeometry>
        </mxCell>
        <mxCell id="vFeREoI47Vu6DbmaeEEL-57" style="edgeStyle=orthogonalEdgeStyle;rounded=0;orthogonalLoop=1;jettySize=auto;html=1;exitX=0.5;exitY=0;exitDx=0;exitDy=0;entryX=0.5;entryY=1;entryDx=0;entryDy=0;" parent="1" source="5HeQNC9SgE1nZ3gUrSCK-82" target="vFeREoI47Vu6DbmaeEEL-56" edge="1">
          <mxGeometry relative="1" as="geometry" />
        </mxCell>
        <mxCell id="HoXzTngkFjWCqknKsVJu-25" style="edgeStyle=orthogonalEdgeStyle;rounded=0;orthogonalLoop=1;jettySize=auto;html=1;exitX=0;exitY=0.5;exitDx=0;exitDy=0;entryX=1;entryY=0.5;entryDx=0;entryDy=0;" parent="1" source="5HeQNC9SgE1nZ3gUrSCK-82" target="6BN7QqZ1zRN99hFNwnGD-94" edge="1">
          <mxGeometry relative="1" as="geometry">
            <Array as="points">
              <mxPoint x="-85" y="345" />
            </Array>
          </mxGeometry>
        </mxCell>
        <mxCell id="5HeQNC9SgE1nZ3gUrSCK-82" value="receivingNew&lt;br&gt;ChildNodes" style="rounded=1;whiteSpace=wrap;html=1;fillColor=#f5f5f5;fontColor=#333333;strokeColor=#666666;" parent="1" vertex="1">
          <mxGeometry x="115" y="315" width="120" height="60" as="geometry" />
        </mxCell>
        <mxCell id="5HeQNC9SgE1nZ3gUrSCK-86" value="" style="edgeStyle=orthogonalEdgeStyle;rounded=0;orthogonalLoop=1;jettySize=auto;html=1;" parent="1" source="5HeQNC9SgE1nZ3gUrSCK-83" target="5HeQNC9SgE1nZ3gUrSCK-82" edge="1">
          <mxGeometry relative="1" as="geometry" />
        </mxCell>
        <mxCell id="5HeQNC9SgE1nZ3gUrSCK-83" value="RX: listen for new children" style="rounded=0;whiteSpace=wrap;html=1;rotation=0;" parent="1" vertex="1">
          <mxGeometry x="277.5" y="320" width="60" height="50" as="geometry" />
        </mxCell>
        <mxCell id="5HeQNC9SgE1nZ3gUrSCK-85" value="If transmisson done" style="text;html=1;align=left;verticalAlign=middle;resizable=0;points=[];autosize=1;" parent="1" vertex="1">
          <mxGeometry x="350" y="320" width="130" height="30" as="geometry" />
        </mxCell>
        <mxCell id="5HeQNC9SgE1nZ3gUrSCK-96" style="edgeStyle=orthogonalEdgeStyle;rounded=0;orthogonalLoop=1;jettySize=auto;html=1;exitX=0.5;exitY=0;exitDx=0;exitDy=0;entryX=1;entryY=0.25;entryDx=0;entryDy=0;" parent="1" source="5HeQNC9SgE1nZ3gUrSCK-93" target="5HeQNC9SgE1nZ3gUrSCK-11" edge="1">
          <mxGeometry relative="1" as="geometry" />
        </mxCell>
        <mxCell id="5HeQNC9SgE1nZ3gUrSCK-93" value="&lt;div&gt;&lt;br&gt;&lt;/div&gt;&lt;div&gt;1. Add a parent to the list&lt;/div&gt;&lt;div&gt;&amp;nbsp;&amp;nbsp;&amp;nbsp; 2. Synchronize GPS time to the parent.&lt;/div&gt;&lt;div&gt;&amp;nbsp;&amp;nbsp;&amp;nbsp;&amp;nbsp; 3.Configure my address and &lt;span style=&quot;white-space: pre;&quot;&gt;&#x9;&lt;/span&gt;other settings received from the packet.&lt;/div&gt;&lt;div&gt;&amp;nbsp;&amp;nbsp;&amp;nbsp; 4.Encryption key derivation.&lt;/div&gt;&lt;div&gt;&amp;nbsp;&amp;nbsp;&amp;nbsp; 5.Push new events - parent &lt;span style=&quot;white-space: pre;&quot;&gt;&#x9;&lt;/span&gt;beacon event, my beacon event&lt;br&gt;&lt;/div&gt;" style="rounded=0;whiteSpace=wrap;html=1;rotation=0;" parent="1" vertex="1">
          <mxGeometry x="1175" y="395" width="170" height="175" as="geometry" />
        </mxCell>
        <mxCell id="6BN7QqZ1zRN99hFNwnGD-16" style="edgeStyle=orthogonalEdgeStyle;rounded=0;orthogonalLoop=1;jettySize=auto;html=1;exitX=1;exitY=0.5;exitDx=0;exitDy=0;entryX=0;entryY=0.5;entryDx=0;entryDy=0;" parent="1" source="6BN7QqZ1zRN99hFNwnGD-2" target="5HeQNC9SgE1nZ3gUrSCK-11" edge="1">
          <mxGeometry relative="1" as="geometry">
            <Array as="points">
              <mxPoint x="735" y="150" />
              <mxPoint x="735" y="200" />
            </Array>
          </mxGeometry>
        </mxCell>
        <mxCell id="6BN7QqZ1zRN99hFNwnGD-2" value="QUEUE the parent beacon and node SYNC beacon" style="rounded=0;whiteSpace=wrap;html=1;rotation=0;" parent="1" vertex="1">
          <mxGeometry x="115" y="125" width="110" height="50" as="geometry" />
        </mxCell>
        <mxCell id="6BN7QqZ1zRN99hFNwnGD-6" value="&lt;div&gt;If CRW window &lt;br&gt;&lt;/div&gt;&lt;div&gt;time expired&lt;/div&gt;" style="text;html=1;align=left;verticalAlign=middle;resizable=0;points=[];autosize=1;" parent="1" vertex="1">
          <mxGeometry x="178.75" y="253" width="105" height="45" as="geometry" />
        </mxCell>
        <mxCell id="6BN7QqZ1zRN99hFNwnGD-131" style="edgeStyle=orthogonalEdgeStyle;rounded=0;orthogonalLoop=1;jettySize=auto;html=1;exitX=0;exitY=0.5;exitDx=0;exitDy=0;endArrow=oval;endFill=1;" parent="1" source="6BN7QqZ1zRN99hFNwnGD-13" edge="1">
          <mxGeometry relative="1" as="geometry">
            <mxPoint x="-320" y="420" as="targetPoint" />
          </mxGeometry>
        </mxCell>
        <mxCell id="6BN7QqZ1zRN99hFNwnGD-13" value="QUEUE new&amp;nbsp; beacon time" style="rounded=0;whiteSpace=wrap;html=1;rotation=0;" parent="1" vertex="1">
          <mxGeometry x="128.75" y="390" width="80" height="60" as="geometry" />
        </mxCell>
        <mxCell id="6BN7QqZ1zRN99hFNwnGD-19" value="If beacon transmitted / not transmitted" style="text;html=1;align=left;verticalAlign=middle;resizable=0;points=[];autosize=1;" parent="1" vertex="1">
          <mxGeometry x="230" y="400" width="220" height="30" as="geometry" />
        </mxCell>
        <mxCell id="6BN7QqZ1zRN99hFNwnGD-129" style="edgeStyle=orthogonalEdgeStyle;rounded=0;orthogonalLoop=1;jettySize=auto;html=1;exitX=0;exitY=0.25;exitDx=0;exitDy=0;endArrow=oval;endFill=1;" parent="1" source="6BN7QqZ1zRN99hFNwnGD-25" edge="1">
          <mxGeometry relative="1" as="geometry">
            <mxPoint x="-320" y="460" as="targetPoint" />
            <Array as="points">
              <mxPoint x="197" y="521" />
              <mxPoint x="145" y="521" />
              <mxPoint x="145" y="460" />
              <mxPoint x="-320" y="460" />
            </Array>
          </mxGeometry>
        </mxCell>
        <mxCell id="6BN7QqZ1zRN99hFNwnGD-135" style="edgeStyle=orthogonalEdgeStyle;rounded=0;orthogonalLoop=1;jettySize=auto;html=1;exitX=0;exitY=0.75;exitDx=0;exitDy=0;entryX=1;entryY=0.25;entryDx=0;entryDy=0;" parent="1" source="6BN7QqZ1zRN99hFNwnGD-25" target="1ap_RD3kbhJHysvHDEdx-4" edge="1">
          <mxGeometry relative="1" as="geometry">
            <mxPoint x="110" y="585" as="targetPoint" />
          </mxGeometry>
        </mxCell>
        <mxCell id="6BN7QqZ1zRN99hFNwnGD-25" value="&lt;div&gt;QUEUE child beacon time &amp;amp;&amp;amp; *confirm the child&lt;br&gt;&lt;/div&gt;&lt;div&gt;&lt;font color=&quot;#ff6666&quot;&gt;*extend RX window&lt;/font&gt;&lt;br&gt;&lt;/div&gt;" style="rounded=0;whiteSpace=wrap;html=1;rotation=0;" parent="1" vertex="1">
          <mxGeometry x="197" y="503.13" width="107" height="63.75" as="geometry" />
        </mxCell>
        <mxCell id="6BN7QqZ1zRN99hFNwnGD-27" value="If beacon detected / not detected *I" style="text;html=1;align=left;verticalAlign=middle;resizable=0;points=[];autosize=1;" parent="1" vertex="1">
          <mxGeometry x="305.5" y="510" width="205" height="30" as="geometry" />
        </mxCell>
        <mxCell id="6BN7QqZ1zRN99hFNwnGD-28" value="A" style="text;html=1;align=left;verticalAlign=middle;resizable=0;points=[];autosize=1;" parent="1" vertex="1">
          <mxGeometry x="870" y="265" width="30" height="30" as="geometry" />
        </mxCell>
        <mxCell id="6BN7QqZ1zRN99hFNwnGD-31" value="B" style="text;html=1;align=left;verticalAlign=middle;resizable=0;points=[];autosize=1;" parent="1" vertex="1">
          <mxGeometry x="770" y="506.25" width="30" height="30" as="geometry" />
        </mxCell>
        <mxCell id="6BN7QqZ1zRN99hFNwnGD-32" value="C" style="text;html=1;align=left;verticalAlign=middle;resizable=0;points=[];autosize=1;" parent="1" vertex="1">
          <mxGeometry x="770" y="632.5" width="30" height="30" as="geometry" />
        </mxCell>
        <mxCell id="6BN7QqZ1zRN99hFNwnGD-134" style="edgeStyle=orthogonalEdgeStyle;rounded=0;orthogonalLoop=1;jettySize=auto;html=1;exitX=0;exitY=0.719;exitDx=0;exitDy=0;endArrow=oval;endFill=1;exitPerimeter=0;" parent="1" source="6BN7QqZ1zRN99hFNwnGD-35" edge="1">
          <mxGeometry relative="1" as="geometry">
            <mxPoint x="-320" y="755" as="targetPoint" />
            <Array as="points">
              <mxPoint x="189" y="670" />
              <mxPoint x="145" y="670" />
              <mxPoint x="145" y="755" />
            </Array>
          </mxGeometry>
        </mxCell>
        <mxCell id="6BN7QqZ1zRN99hFNwnGD-136" style="edgeStyle=orthogonalEdgeStyle;rounded=0;orthogonalLoop=1;jettySize=auto;html=1;exitX=0;exitY=0.25;exitDx=0;exitDy=0;entryX=1;entryY=0.75;entryDx=0;entryDy=0;" parent="1" source="6BN7QqZ1zRN99hFNwnGD-35" target="1ap_RD3kbhJHysvHDEdx-4" edge="1">
          <mxGeometry relative="1" as="geometry">
            <mxPoint x="110" y="615" as="targetPoint" />
            <Array as="points">
              <mxPoint x="145" y="645" />
              <mxPoint x="145" y="620" />
            </Array>
          </mxGeometry>
        </mxCell>
        <mxCell id="6BN7QqZ1zRN99hFNwnGD-35" value="&lt;div&gt;QUEUE parent beacon time &amp;amp;&amp;amp; *synchronise&lt;/div&gt;&lt;div&gt;&lt;font color=&quot;#ff6666&quot;&gt;*extend RX window&lt;/font&gt;&lt;br&gt;&lt;/div&gt;" style="rounded=0;whiteSpace=wrap;html=1;rotation=0;" parent="1" vertex="1">
          <mxGeometry x="183.5" y="627.5" width="120.5" height="65" as="geometry" />
        </mxCell>
        <mxCell id="6BN7QqZ1zRN99hFNwnGD-37" value="If beacon detected / not detected *J" style="text;html=1;align=left;verticalAlign=middle;resizable=0;points=[];autosize=1;" parent="1" vertex="1">
          <mxGeometry x="305.5" y="635" width="210" height="30" as="geometry" />
        </mxCell>
        <mxCell id="6BN7QqZ1zRN99hFNwnGD-46" value="A: If event == Beacon event" style="text;html=1;align=left;verticalAlign=middle;resizable=0;points=[];autosize=1;" parent="1" vertex="1">
          <mxGeometry x="360" y="1215" width="170" height="30" as="geometry" />
        </mxCell>
        <mxCell id="6BN7QqZ1zRN99hFNwnGD-47" value="B: If event == Child beacon" style="text;html=1;align=left;verticalAlign=middle;resizable=0;points=[];autosize=1;" parent="1" vertex="1">
          <mxGeometry x="360" y="1235" width="165" height="30" as="geometry" />
        </mxCell>
        <mxCell id="6BN7QqZ1zRN99hFNwnGD-48" value="C: If event == Parent beacon" style="text;html=1;align=left;verticalAlign=middle;resizable=0;points=[];autosize=1;" parent="1" vertex="1">
          <mxGeometry x="360" y="1255" width="175" height="30" as="geometry" />
        </mxCell>
        <mxCell id="6BN7QqZ1zRN99hFNwnGD-49" value="D: If event == Receiving data" style="text;html=1;align=left;verticalAlign=middle;resizable=0;points=[];autosize=1;" parent="1" vertex="1">
          <mxGeometry x="360" y="1275" width="175" height="30" as="geometry" />
        </mxCell>
        <mxCell id="6BN7QqZ1zRN99hFNwnGD-52" value="*I: If beacon not detected for X amout of times - cancel the child and return to connectedIdle" style="text;html=1;align=left;verticalAlign=middle;resizable=0;points=[];autosize=1;" parent="1" vertex="1">
          <mxGeometry x="355" y="1310" width="505" height="30" as="geometry" />
        </mxCell>
        <mxCell id="6BN7QqZ1zRN99hFNwnGD-53" value="*J: If beacon not detected for X amout of times - cancel the parent and return to idleState" style="text;html=1;align=left;verticalAlign=middle;resizable=0;points=[];autosize=1;" parent="1" vertex="1">
          <mxGeometry x="355" y="1335" width="490" height="30" as="geometry" />
        </mxCell>
        <mxCell id="6BN7QqZ1zRN99hFNwnGD-54" value="*K: The decision made based on the node algorithm (for now it randomly selects a time slot to transmit at)" style="text;html=1;align=left;verticalAlign=middle;resizable=0;points=[];autosize=1;" parent="1" vertex="1">
          <mxGeometry x="355" y="1360" width="580" height="30" as="geometry" />
        </mxCell>
        <mxCell id="6BN7QqZ1zRN99hFNwnGD-165" style="edgeStyle=orthogonalEdgeStyle;rounded=0;orthogonalLoop=1;jettySize=auto;html=1;exitX=0.5;exitY=1;exitDx=0;exitDy=0;endArrow=oval;endFill=1;" parent="1" source="6BN7QqZ1zRN99hFNwnGD-66" edge="1">
          <mxGeometry relative="1" as="geometry">
            <mxPoint x="308" y="1175" as="targetPoint" />
          </mxGeometry>
        </mxCell>
        <mxCell id="6BN7QqZ1zRN99hFNwnGD-66" value="&lt;div&gt;+ QUEUE the (potentialParent) node time slot&lt;/div&gt;" style="rounded=0;whiteSpace=wrap;html=1;fillColor=#f8cecc;strokeColor=#b85450;" parent="1" vertex="1">
          <mxGeometry x="250" y="1015" width="115" height="60" as="geometry" />
        </mxCell>
        <mxCell id="6BN7QqZ1zRN99hFNwnGD-68" value="" style="endArrow=classic;html=1;rounded=0;entryX=0.5;entryY=0;entryDx=0;entryDy=0;startArrow=oval;startFill=1;" parent="1" target="6BN7QqZ1zRN99hFNwnGD-66" edge="1">
          <mxGeometry width="50" height="50" relative="1" as="geometry">
            <mxPoint x="308" y="945" as="sourcePoint" />
            <mxPoint x="380" y="980" as="targetPoint" />
          </mxGeometry>
        </mxCell>
        <mxCell id="6BN7QqZ1zRN99hFNwnGD-86" value="" style="endArrow=oval;html=1;rounded=0;endFill=1;" parent="1" edge="1">
          <mxGeometry width="50" height="50" relative="1" as="geometry">
            <mxPoint x="-320" y="860" as="sourcePoint" />
            <mxPoint x="-320" y="185" as="targetPoint" />
            <Array as="points">
              <mxPoint x="-320" y="520" />
            </Array>
          </mxGeometry>
        </mxCell>
        <mxCell id="6BN7QqZ1zRN99hFNwnGD-91" value="&lt;div&gt;If node detected &lt;br&gt;&lt;/div&gt;&lt;div&gt;(connnection request)&lt;/div&gt;" style="text;html=1;align=left;verticalAlign=middle;resizable=0;points=[];autosize=1;" parent="1" vertex="1">
          <mxGeometry x="-45" y="305" width="135" height="45" as="geometry" />
        </mxCell>
        <mxCell id="n4_W6Bm8d8PjsMYZMqAp-2" style="edgeStyle=orthogonalEdgeStyle;rounded=0;orthogonalLoop=1;jettySize=auto;html=1;exitX=0;exitY=0.5;exitDx=0;exitDy=0;entryX=0;entryY=0.5;entryDx=0;entryDy=0;" parent="1" source="6BN7QqZ1zRN99hFNwnGD-94" target="HoXzTngkFjWCqknKsVJu-8" edge="1">
          <mxGeometry relative="1" as="geometry" />
        </mxCell>
        <mxCell id="6BN7QqZ1zRN99hFNwnGD-94" value="dataQUEUE the uplink OTAARegReq + save the potential Child" style="rounded=0;whiteSpace=wrap;html=1;rotation=0;" parent="1" vertex="1">
          <mxGeometry x="-220" y="320" width="130" height="50" as="geometry" />
        </mxCell>
        <mxCell id="vFeREoI47Vu6DbmaeEEL-51" style="edgeStyle=orthogonalEdgeStyle;rounded=0;orthogonalLoop=1;jettySize=auto;html=1;exitX=1;exitY=0.5;exitDx=0;exitDy=0;entryX=0.25;entryY=0;entryDx=0;entryDy=0;" parent="1" source="6BN7QqZ1zRN99hFNwnGD-100" target="5HeQNC9SgE1nZ3gUrSCK-11" edge="1">
          <mxGeometry relative="1" as="geometry" />
        </mxCell>
        <mxCell id="6BN7QqZ1zRN99hFNwnGD-100" value="dataQUEUE the data to the next node" style="rounded=0;whiteSpace=wrap;html=1;rotation=0;" parent="1" vertex="1">
          <mxGeometry x="623" y="75.63" width="105" height="56.25" as="geometry" />
        </mxCell>
        <mxCell id="6BN7QqZ1zRN99hFNwnGD-101" value="" style="endArrow=classic;html=1;rounded=0;entryX=0;entryY=0.5;entryDx=0;entryDy=0;exitX=1;exitY=0.5;exitDx=0;exitDy=0;" parent="1" source="1ap_RD3kbhJHysvHDEdx-1" target="6BN7QqZ1zRN99hFNwnGD-100" edge="1">
          <mxGeometry width="50" height="50" relative="1" as="geometry">
            <mxPoint x="508" y="104.25" as="sourcePoint" />
            <mxPoint x="548" y="86.25" as="targetPoint" />
          </mxGeometry>
        </mxCell>
        <mxCell id="6BN7QqZ1zRN99hFNwnGD-102" value="END NODE DATA READY" style="text;html=1;align=left;verticalAlign=middle;resizable=0;points=[];autosize=1;" parent="1" vertex="1">
          <mxGeometry x="473" y="81.25" width="160" height="30" as="geometry" />
        </mxCell>
        <mxCell id="6BN7QqZ1zRN99hFNwnGD-157" style="edgeStyle=orthogonalEdgeStyle;rounded=0;orthogonalLoop=1;jettySize=auto;html=1;exitX=0.5;exitY=1;exitDx=0;exitDy=0;entryX=1;entryY=0.5;entryDx=0;entryDy=0;" parent="1" source="1ap_RD3kbhJHysvHDEdx-4" target="6BN7QqZ1zRN99hFNwnGD-156" edge="1">
          <mxGeometry relative="1" as="geometry">
            <mxPoint x="50" y="630" as="sourcePoint" />
          </mxGeometry>
        </mxCell>
        <mxCell id="6BN7QqZ1zRN99hFNwnGD-111" value="&lt;div&gt;If data&lt;br&gt;&lt;/div&gt;&lt;div&gt;appended&lt;/div&gt;" style="text;html=1;align=left;verticalAlign=middle;resizable=0;points=[];autosize=1;" parent="1" vertex="1">
          <mxGeometry x="131.25" y="577.5" width="75" height="45" as="geometry" />
        </mxCell>
        <mxCell id="6BN7QqZ1zRN99hFNwnGD-112" value="&lt;div&gt;&lt;div&gt;If not detected / packet not appended&lt;/div&gt;&lt;/div&gt;" style="text;html=1;align=left;verticalAlign=middle;resizable=0;points=[];autosize=1;" parent="1" vertex="1">
          <mxGeometry x="-120" y="730" width="220" height="30" as="geometry" />
        </mxCell>
        <mxCell id="6BN7QqZ1zRN99hFNwnGD-114" value="&lt;div&gt;If not detected / packet not appended&lt;/div&gt;" style="text;html=1;align=left;verticalAlign=middle;resizable=0;points=[];autosize=1;" parent="1" vertex="1">
          <mxGeometry x="-175" y="440" width="220" height="30" as="geometry" />
        </mxCell>
        <mxCell id="HoXzTngkFjWCqknKsVJu-31" style="edgeStyle=orthogonalEdgeStyle;rounded=0;orthogonalLoop=1;jettySize=auto;html=1;exitX=0;exitY=0.5;exitDx=0;exitDy=0;endArrow=oval;endFill=1;" parent="1" source="6BN7QqZ1zRN99hFNwnGD-115" edge="1">
          <mxGeometry relative="1" as="geometry">
            <mxPoint x="-320" y="600" as="targetPoint" />
          </mxGeometry>
        </mxCell>
        <mxCell id="6BN7QqZ1zRN99hFNwnGD-115" value="&lt;div&gt;Use routing algorithm to&lt;br&gt;&lt;/div&gt;&lt;div&gt;dataQUEUE the data to the next node&lt;/div&gt;" style="rounded=0;whiteSpace=wrap;html=1;rotation=0;" parent="1" vertex="1">
          <mxGeometry x="-280" y="575" width="145" height="50" as="geometry" />
        </mxCell>
        <mxCell id="6BN7QqZ1zRN99hFNwnGD-122" value="" style="endArrow=classic;html=1;rounded=0;entryX=0;entryY=0.5;entryDx=0;entryDy=0;" parent="1" target="5HeQNC9SgE1nZ3gUrSCK-50" edge="1">
          <mxGeometry width="50" height="50" relative="1" as="geometry">
            <mxPoint x="-475" y="945" as="sourcePoint" />
            <mxPoint x="-445" y="800" as="targetPoint" />
          </mxGeometry>
        </mxCell>
        <mxCell id="6BN7QqZ1zRN99hFNwnGD-123" value="START" style="text;html=1;align=left;verticalAlign=middle;resizable=0;points=[];autosize=1;" parent="1" vertex="1">
          <mxGeometry x="-475" y="922.5" width="60" height="30" as="geometry" />
        </mxCell>
        <mxCell id="6BN7QqZ1zRN99hFNwnGD-137" value="" style="endArrow=none;html=1;rounded=0;" parent="1" edge="1">
          <mxGeometry width="50" height="50" relative="1" as="geometry">
            <mxPoint x="-320" y="185" as="sourcePoint" />
            <mxPoint x="170" y="185" as="targetPoint" />
            <Array as="points">
              <mxPoint x="40" y="185" />
            </Array>
          </mxGeometry>
        </mxCell>
        <mxCell id="6BN7QqZ1zRN99hFNwnGD-150" value="&lt;div&gt;If data == MsgForward &lt;br&gt;&lt;/div&gt;&lt;div&gt;or data == OTAARegACK&lt;/div&gt;&lt;div&gt;or data == OTAARegReq&lt;br&gt;&lt;/div&gt;" style="text;html=1;align=left;verticalAlign=middle;resizable=0;points=[];autosize=1;" parent="1" vertex="1">
          <mxGeometry x="-125" y="550" width="155" height="60" as="geometry" />
        </mxCell>
        <mxCell id="6BN7QqZ1zRN99hFNwnGD-151" value="If data == MsgThisNode" style="text;html=1;align=left;verticalAlign=middle;resizable=0;points=[];autosize=1;" parent="1" vertex="1">
          <mxGeometry x="-120" y="680" width="150" height="30" as="geometry" />
        </mxCell>
        <mxCell id="6BN7QqZ1zRN99hFNwnGD-159" style="edgeStyle=orthogonalEdgeStyle;rounded=0;orthogonalLoop=1;jettySize=auto;html=1;exitX=0;exitY=0.5;exitDx=0;exitDy=0;endArrow=oval;endFill=1;" parent="1" source="6BN7QqZ1zRN99hFNwnGD-156" edge="1">
          <mxGeometry relative="1" as="geometry">
            <mxPoint x="-320" y="703" as="targetPoint" />
          </mxGeometry>
        </mxCell>
        <mxCell id="6BN7QqZ1zRN99hFNwnGD-156" value="Pass data to the application layer" style="rounded=0;whiteSpace=wrap;html=1;rotation=0;" parent="1" vertex="1">
          <mxGeometry x="-230" y="680" width="90" height="45" as="geometry" />
        </mxCell>
        <mxCell id="6BN7QqZ1zRN99hFNwnGD-175" value="&lt;div&gt;***Corner cases: &lt;span style=&quot;white-space: pre;&quot;&gt; &lt;/span&gt;&lt;span style=&quot;white-space: pre;&quot;&gt; &lt;/span&gt;#1 The initial parent has to be hardcoded and running&lt;/div&gt;&lt;div&gt;&lt;span style=&quot;white-space: pre;&quot;&gt; &lt;/span&gt;&lt;span style=&quot;white-space: pre;&quot;&gt; &lt;/span&gt;&lt;span style=&quot;white-space: pre;&quot;&gt; &lt;/span&gt;&lt;span style=&quot;white-space: pre;&quot;&gt; &lt;/span&gt;&lt;span style=&quot;white-space: pre;&quot;&gt; #2&lt;/span&gt;&lt;/div&gt;&lt;div&gt;&lt;span style=&quot;white-space: pre;&quot;&gt;&lt;span style=&quot;white-space: pre;&quot;&gt; &lt;/span&gt;&lt;span style=&quot;white-space: pre;&quot;&gt; &lt;/span&gt;&lt;span style=&quot;white-space: pre;&quot;&gt; &lt;/span&gt;&lt;span style=&quot;white-space: pre;&quot;&gt; &lt;/span&gt;&lt;span style=&quot;white-space: pre;&quot;&gt; &lt;/span&gt;#3&lt;br&gt;&lt;/span&gt;&lt;/div&gt;" style="text;html=1;align=left;verticalAlign=middle;resizable=0;points=[];autosize=1;" parent="1" vertex="1">
          <mxGeometry x="355" y="1435" width="440" height="60" as="geometry" />
        </mxCell>
        <mxCell id="6BN7QqZ1zRN99hFNwnGD-183" style="edgeStyle=orthogonalEdgeStyle;rounded=0;orthogonalLoop=1;jettySize=auto;html=1;exitX=0;exitY=0.5;exitDx=0;exitDy=0;endArrow=oval;endFill=1;" parent="1" source="6BN7QqZ1zRN99hFNwnGD-182" edge="1">
          <mxGeometry relative="1" as="geometry">
            <mxPoint x="-320" y="805" as="targetPoint" />
          </mxGeometry>
        </mxCell>
        <mxCell id="6BN7QqZ1zRN99hFNwnGD-182" value="QUEUE&amp;nbsp; sync beacon time" style="rounded=0;whiteSpace=wrap;html=1;rotation=0;fillColor=#f8cecc;strokeColor=#b85450;" parent="1" vertex="1">
          <mxGeometry x="85" y="780" width="80" height="50" as="geometry" />
        </mxCell>
        <mxCell id="1ap_RD3kbhJHysvHDEdx-1" value="APPLICATION" style="ellipse;whiteSpace=wrap;html=1;" parent="1" vertex="1">
          <mxGeometry x="380" y="70" width="90" height="67.5" as="geometry" />
        </mxCell>
        <mxCell id="1ap_RD3kbhJHysvHDEdx-2" value="If timeout or&lt;br&gt;invalid response (HW failure)" style="text;html=1;align=left;verticalAlign=middle;resizable=0;points=[];autosize=1;" parent="1" vertex="1">
          <mxGeometry x="640" y="1080" width="175" height="45" as="geometry" />
        </mxCell>
        <mxCell id="1ap_RD3kbhJHysvHDEdx-3" value="If timeout or&lt;br&gt;invalid response &amp;gt; 3xNetworkDepth" style="text;html=1;align=left;verticalAlign=middle;resizable=0;points=[];autosize=1;" parent="1" vertex="1">
          <mxGeometry x="1265" y="1125" width="210" height="45" as="geometry" />
        </mxCell>
        <mxCell id="HoXzTngkFjWCqknKsVJu-30" style="edgeStyle=orthogonalEdgeStyle;rounded=0;orthogonalLoop=1;jettySize=auto;html=1;exitX=0;exitY=0.5;exitDx=0;exitDy=0;entryX=1;entryY=0.5;entryDx=0;entryDy=0;" parent="1" source="1ap_RD3kbhJHysvHDEdx-4" target="6BN7QqZ1zRN99hFNwnGD-115" edge="1">
          <mxGeometry relative="1" as="geometry" />
        </mxCell>
        <mxCell id="1ap_RD3kbhJHysvHDEdx-4" value="parseData" style="whiteSpace=wrap;html=1;aspect=fixed;" parent="1" vertex="1">
          <mxGeometry x="10" y="560" width="80" height="80" as="geometry" />
        </mxCell>
        <mxCell id="vFeREoI47Vu6DbmaeEEL-11" value="If timeout or&lt;br&gt;&lt;div&gt;invalid &lt;br&gt;&lt;/div&gt;&lt;div&gt;response&lt;/div&gt;" style="text;html=1;align=left;verticalAlign=middle;resizable=0;points=[];autosize=1;" parent="1" vertex="1">
          <mxGeometry x="35" y="1015" width="85" height="60" as="geometry" />
        </mxCell>
        <mxCell id="vFeREoI47Vu6DbmaeEEL-23" value="&lt;span style=&quot;white-space: pre;&quot;&gt; &lt;/span&gt;p&lt;font style=&quot;font-size: 12px;&quot;&gt;otentialParents list:&lt;br&gt;&lt;/font&gt;" style="text;html=1;align=left;verticalAlign=middle;resizable=0;points=[];autosize=1;" parent="1" vertex="1">
          <mxGeometry x="-355" y="1275" width="130" height="30" as="geometry" />
        </mxCell>
        <mxCell id="vFeREoI47Vu6DbmaeEEL-26" value="" style="swimlane;startSize=0;" parent="1" vertex="1">
          <mxGeometry x="-355" y="1310" width="385" height="95" as="geometry" />
        </mxCell>
        <mxCell id="vFeREoI47Vu6DbmaeEEL-27" value="device ADDR&amp;nbsp; |&amp;nbsp; frequency&amp;nbsp; |&amp;nbsp; SF&amp;nbsp; |&amp;nbsp; timeSlot&amp;nbsp; |&amp;nbsp; Priority (algorithm)" style="text;html=1;align=left;verticalAlign=middle;resizable=0;points=[];autosize=1;" parent="vFeREoI47Vu6DbmaeEEL-26" vertex="1">
          <mxGeometry x="15" width="370" height="30" as="geometry" />
        </mxCell>
        <mxCell id="vFeREoI47Vu6DbmaeEEL-29" value="device ADDR&amp;nbsp; |&amp;nbsp; frequency&amp;nbsp; |&amp;nbsp; SF&amp;nbsp; |&amp;nbsp; timeSlot&amp;nbsp; |&amp;nbsp; Priority (algorithm)" style="text;html=1;align=left;verticalAlign=middle;resizable=0;points=[];autosize=1;" parent="vFeREoI47Vu6DbmaeEEL-26" vertex="1">
          <mxGeometry x="15" y="20" width="370" height="30" as="geometry" />
        </mxCell>
        <mxCell id="vFeREoI47Vu6DbmaeEEL-30" value="device ADDR&amp;nbsp; |&amp;nbsp; frequency&amp;nbsp; |&amp;nbsp; SF&amp;nbsp; |&amp;nbsp; timeSlot&amp;nbsp; |&amp;nbsp; Priority (algorithm)" style="text;html=1;align=left;verticalAlign=middle;resizable=0;points=[];autosize=1;" parent="vFeREoI47Vu6DbmaeEEL-26" vertex="1">
          <mxGeometry x="15" y="40" width="370" height="30" as="geometry" />
        </mxCell>
        <mxCell id="vFeREoI47Vu6DbmaeEEL-31" value="device ADDR&amp;nbsp; |&amp;nbsp; frequency&amp;nbsp; |&amp;nbsp; SF&amp;nbsp; |&amp;nbsp; timeSlot&amp;nbsp; |&amp;nbsp; Priority (algorithm)" style="text;html=1;align=left;verticalAlign=middle;resizable=0;points=[];autosize=1;" parent="vFeREoI47Vu6DbmaeEEL-26" vertex="1">
          <mxGeometry x="15" y="60" width="370" height="30" as="geometry" />
        </mxCell>
        <mxCell id="vFeREoI47Vu6DbmaeEEL-32" value="Index" style="text;html=1;align=left;verticalAlign=middle;resizable=0;points=[];autosize=1;" parent="1" vertex="1">
          <mxGeometry x="-395" y="1290" width="50" height="30" as="geometry" />
        </mxCell>
        <mxCell id="vFeREoI47Vu6DbmaeEEL-33" value="0" style="text;html=1;align=left;verticalAlign=middle;resizable=0;points=[];autosize=1;" parent="1" vertex="1">
          <mxGeometry x="-395" y="1310" width="30" height="30" as="geometry" />
        </mxCell>
        <mxCell id="vFeREoI47Vu6DbmaeEEL-34" value="1" style="text;html=1;align=left;verticalAlign=middle;resizable=0;points=[];autosize=1;" parent="1" vertex="1">
          <mxGeometry x="-395" y="1330" width="30" height="30" as="geometry" />
        </mxCell>
        <mxCell id="vFeREoI47Vu6DbmaeEEL-35" value="2" style="text;html=1;align=left;verticalAlign=middle;resizable=0;points=[];autosize=1;" parent="1" vertex="1">
          <mxGeometry x="-395" y="1350" width="30" height="30" as="geometry" />
        </mxCell>
        <mxCell id="vFeREoI47Vu6DbmaeEEL-36" value="3" style="text;html=1;align=left;verticalAlign=middle;resizable=0;points=[];autosize=1;" parent="1" vertex="1">
          <mxGeometry x="-395" y="1370" width="30" height="30" as="geometry" />
        </mxCell>
        <mxCell id="vFeREoI47Vu6DbmaeEEL-40" value="*L: If beacon not detected for X amout of times - cancel the potential parent and return to idleState" style="text;html=1;align=left;verticalAlign=middle;resizable=0;points=[];autosize=1;" parent="1" vertex="1">
          <mxGeometry x="355" y="1380" width="540" height="30" as="geometry" />
        </mxCell>
        <mxCell id="vFeREoI47Vu6DbmaeEEL-52" value="" style="endArrow=classic;html=1;rounded=0;entryX=0;entryY=0.75;entryDx=0;entryDy=0;" parent="1" target="5HeQNC9SgE1nZ3gUrSCK-11" edge="1">
          <mxGeometry width="50" height="50" relative="1" as="geometry">
            <mxPoint x="170" y="185" as="sourcePoint" />
            <mxPoint x="320" y="170" as="targetPoint" />
            <Array as="points">
              <mxPoint x="650" y="185" />
              <mxPoint x="650" y="215" />
            </Array>
          </mxGeometry>
        </mxCell>
        <mxCell id="vFeREoI47Vu6DbmaeEEL-56" value="QUEUE new&amp;nbsp; beacon time" style="rounded=0;whiteSpace=wrap;html=1;" parent="1" vertex="1">
          <mxGeometry x="133.75" y="195" width="82.5" height="35" as="geometry" />
        </mxCell>
        <mxCell id="XbEz7QA7JHCAoe-RFgPI-5" style="edgeStyle=orthogonalEdgeStyle;rounded=0;orthogonalLoop=1;jettySize=auto;html=1;exitX=1;exitY=0.5;exitDx=0;exitDy=0;entryX=0;entryY=0.5;entryDx=0;entryDy=0;" parent="1" source="XbEz7QA7JHCAoe-RFgPI-1" target="5HeQNC9SgE1nZ3gUrSCK-37" edge="1">
          <mxGeometry relative="1" as="geometry" />
        </mxCell>
        <mxCell id="XbEz7QA7JHCAoe-RFgPI-1" value="&lt;div&gt;waitForPotential&lt;/div&gt;&lt;div&gt;ParentWindow&lt;/div&gt;" style="rounded=1;whiteSpace=wrap;html=1;fillColor=#f5f5f5;fontColor=#333333;strokeColor=#666666;" parent="1" vertex="1">
          <mxGeometry x="845" y="968.75" width="120" height="60" as="geometry" />
        </mxCell>
        <mxCell id="XbEz7QA7JHCAoe-RFgPI-4" style="edgeStyle=orthogonalEdgeStyle;rounded=0;orthogonalLoop=1;jettySize=auto;html=1;exitX=1;exitY=0.5;exitDx=0;exitDy=0;" parent="1" source="XbEz7QA7JHCAoe-RFgPI-2" target="XbEz7QA7JHCAoe-RFgPI-1" edge="1">
          <mxGeometry relative="1" as="geometry" />
        </mxCell>
        <mxCell id="XbEz7QA7JHCAoe-RFgPI-2" value="remove the queued events and QUEUE the potentialParent node time slot" style="rounded=0;whiteSpace=wrap;html=1;" parent="1" vertex="1">
          <mxGeometry x="700" y="967.5" width="120" height="62.5" as="geometry" />
        </mxCell>
        <mxCell id="XbEz7QA7JHCAoe-RFgPI-3" style="edgeStyle=orthogonalEdgeStyle;rounded=0;orthogonalLoop=1;jettySize=auto;html=1;exitX=1;exitY=0.5;exitDx=0;exitDy=0;entryX=0;entryY=0.5;entryDx=0;entryDy=0;" parent="1" source="5HeQNC9SgE1nZ3gUrSCK-34" target="XbEz7QA7JHCAoe-RFgPI-2" edge="1">
          <mxGeometry relative="1" as="geometry" />
        </mxCell>
        <mxCell id="XbEz7QA7JHCAoe-RFgPI-6" value="&lt;div&gt;If event == &lt;br&gt;&lt;/div&gt;&lt;div&gt;potentialParent&lt;/div&gt;&lt;div&gt;&amp;nbsp;window&lt;br&gt;&lt;/div&gt;" style="text;html=1;align=left;verticalAlign=middle;resizable=0;points=[];autosize=1;" parent="1" vertex="1">
          <mxGeometry x="965" y="948" width="100" height="60" as="geometry" />
        </mxCell>
        <mxCell id="XbEz7QA7JHCAoe-RFgPI-16" style="edgeStyle=orthogonalEdgeStyle;rounded=0;orthogonalLoop=1;jettySize=auto;html=1;exitX=0;exitY=0.5;exitDx=0;exitDy=0;endArrow=oval;endFill=1;" parent="1" source="XbEz7QA7JHCAoe-RFgPI-14" edge="1">
          <mxGeometry relative="1" as="geometry">
            <mxPoint x="-320" y="860" as="targetPoint" />
          </mxGeometry>
        </mxCell>
        <mxCell id="XbEz7QA7JHCAoe-RFgPI-14" value="QUEUE&amp;nbsp; data reception beacon time" style="rounded=0;whiteSpace=wrap;html=1;rotation=0;fillColor=#f8cecc;strokeColor=#b85450;" parent="1" vertex="1">
          <mxGeometry x="178.75" y="835" width="77.5" height="50" as="geometry" />
        </mxCell>
        <mxCell id="XbEz7QA7JHCAoe-RFgPI-15" style="edgeStyle=orthogonalEdgeStyle;rounded=0;orthogonalLoop=1;jettySize=auto;html=1;exitX=0;exitY=0.75;exitDx=0;exitDy=0;entryX=1;entryY=0.5;entryDx=0;entryDy=0;" parent="1" source="XbEz7QA7JHCAoe-RFgPI-10" target="XbEz7QA7JHCAoe-RFgPI-14" edge="1">
          <mxGeometry relative="1" as="geometry" />
        </mxCell>
        <mxCell id="XbEz7QA7JHCAoe-RFgPI-17" value="If data not transmitted" style="text;html=1;align=left;verticalAlign=middle;resizable=0;points=[];autosize=1;" parent="1" vertex="1">
          <mxGeometry x="265" y="835" width="135" height="30" as="geometry" />
        </mxCell>
        <mxCell id="XbEz7QA7JHCAoe-RFgPI-19" value="If data transmitted" style="text;html=1;align=left;verticalAlign=middle;resizable=0;points=[];autosize=1;" parent="1" vertex="1">
          <mxGeometry x="200" y="780" width="115" height="30" as="geometry" />
        </mxCell>
        <mxCell id="XbEz7QA7JHCAoe-RFgPI-20" value="" style="endArrow=classic;html=1;rounded=0;entryX=1;entryY=0.5;entryDx=0;entryDy=0;exitX=1;exitY=0.5;exitDx=0;exitDy=0;" parent="1" source="5HeQNC9SgE1nZ3gUrSCK-11" target="XbEz7QA7JHCAoe-RFgPI-23" edge="1">
          <mxGeometry width="50" height="50" relative="1" as="geometry">
            <mxPoint x="1000" y="200" as="sourcePoint" />
            <mxPoint x="875" y="845" as="targetPoint" />
            <Array as="points">
              <mxPoint x="1135" y="200" />
              <mxPoint x="1135" y="845" />
            </Array>
          </mxGeometry>
        </mxCell>
        <mxCell id="XbEz7QA7JHCAoe-RFgPI-21" value="D" style="text;html=1;align=left;verticalAlign=middle;resizable=0;points=[];autosize=1;" parent="1" vertex="1">
          <mxGeometry x="765" y="815" width="30" height="30" as="geometry" />
        </mxCell>
        <mxCell id="XbEz7QA7JHCAoe-RFgPI-24" style="edgeStyle=orthogonalEdgeStyle;rounded=0;orthogonalLoop=1;jettySize=auto;html=1;exitX=0;exitY=0.5;exitDx=0;exitDy=0;entryX=1;entryY=0.5;entryDx=0;entryDy=0;" parent="1" source="XbEz7QA7JHCAoe-RFgPI-23" target="XbEz7QA7JHCAoe-RFgPI-10" edge="1">
          <mxGeometry relative="1" as="geometry" />
        </mxCell>
        <mxCell id="XbEz7QA7JHCAoe-RFgPI-23" value="RX: Data" style="rounded=0;whiteSpace=wrap;html=1;rotation=0;strokeColor=#b85450;fillColor=#f8cecc;" parent="1" vertex="1">
          <mxGeometry x="695" y="820" width="60" height="50" as="geometry" />
        </mxCell>
        <mxCell id="M-iJREP47J18VLFSSXu6-2" value="If timeout or&lt;br&gt;invalid response" style="text;html=1;align=left;verticalAlign=middle;resizable=0;points=[];autosize=1;" parent="1" vertex="1">
          <mxGeometry x="1140" y="1095" width="105" height="45" as="geometry" />
        </mxCell>
        <mxCell id="M-iJREP47J18VLFSSXu6-3" value="QUEUE the potentialParent node time slot" style="rounded=0;whiteSpace=wrap;html=1;" parent="1" vertex="1">
          <mxGeometry x="1010" y="1105" width="120" height="62.5" as="geometry" />
        </mxCell>
        <mxCell id="GB7mApdc-Wd5zaGxchms-4" value="If CRW time" style="text;html=1;align=left;verticalAlign=middle;resizable=0;points=[];autosize=1;" parent="1" vertex="1">
          <mxGeometry x="630" y="277.5" width="85" height="30" as="geometry" />
        </mxCell>
        <mxCell id="GB7mApdc-Wd5zaGxchms-5" value="If not CRW time" style="text;html=1;align=left;verticalAlign=middle;resizable=0;points=[];autosize=1;" parent="1" vertex="1">
          <mxGeometry x="630" y="370" width="105" height="30" as="geometry" />
        </mxCell>
        <mxCell id="GB7mApdc-Wd5zaGxchms-10" style="edgeStyle=orthogonalEdgeStyle;rounded=0;orthogonalLoop=1;jettySize=auto;html=1;exitX=0;exitY=0.5;exitDx=0;exitDy=0;entryX=1;entryY=0.5;entryDx=0;entryDy=0;" parent="1" source="GB7mApdc-Wd5zaGxchms-9" target="y7l_Vf18f22PjJahQDfY-35" edge="1">
          <mxGeometry relative="1" as="geometry" />
        </mxCell>
        <mxCell id="GB7mApdc-Wd5zaGxchms-9" value="&amp;nbsp;Build a beacon packet &amp;amp;&amp;amp; check all&amp;nbsp;children data queues on current SF &amp;amp;&amp;amp; agregate the data frames to the packet" style="rounded=0;whiteSpace=wrap;html=1;rotation=0;" parent="1" vertex="1">
          <mxGeometry x="785" y="300" width="160" height="80" as="geometry" />
        </mxCell>
        <mxCell id="HoXzTngkFjWCqknKsVJu-2" style="edgeStyle=orthogonalEdgeStyle;rounded=0;orthogonalLoop=1;jettySize=auto;html=1;exitX=0.5;exitY=0;exitDx=0;exitDy=0;entryX=1;entryY=0.5;entryDx=0;entryDy=0;" parent="1" source="GB7mApdc-Wd5zaGxchms-2" target="vFeREoI47Vu6DbmaeEEL-56" edge="1">
          <mxGeometry relative="1" as="geometry" />
        </mxCell>
        <mxCell id="HoXzTngkFjWCqknKsVJu-3" value="If transmisson not done" style="text;html=1;align=left;verticalAlign=middle;resizable=0;points=[];autosize=1;" parent="1" vertex="1">
          <mxGeometry x="375" y="185" width="145" height="30" as="geometry" />
        </mxCell>
        <mxCell id="HoXzTngkFjWCqknKsVJu-5" style="edgeStyle=orthogonalEdgeStyle;rounded=0;orthogonalLoop=1;jettySize=auto;html=1;exitX=0;exitY=0.25;exitDx=0;exitDy=0;entryX=1;entryY=0.5;entryDx=0;entryDy=0;" parent="1" source="XbEz7QA7JHCAoe-RFgPI-10" target="6BN7QqZ1zRN99hFNwnGD-182" edge="1">
          <mxGeometry relative="1" as="geometry" />
        </mxCell>
        <mxCell id="HoXzTngkFjWCqknKsVJu-17" style="edgeStyle=orthogonalEdgeStyle;rounded=0;orthogonalLoop=1;jettySize=auto;html=1;exitX=1;exitY=0.5;exitDx=0;exitDy=0;entryX=0.25;entryY=0;entryDx=0;entryDy=0;" parent="1" source="HoXzTngkFjWCqknKsVJu-8" target="5HeQNC9SgE1nZ3gUrSCK-82" edge="1">
          <mxGeometry relative="1" as="geometry" />
        </mxCell>
        <mxCell id="HoXzTngkFjWCqknKsVJu-8" value="RX: listen for new children" style="rounded=0;whiteSpace=wrap;html=1;rotation=0;" parent="1" vertex="1">
          <mxGeometry x="-20" y="215" width="60" height="50" as="geometry" />
        </mxCell>
        <mxCell id="e11LPDsxx33Z_SGylLZB-6" style="edgeStyle=orthogonalEdgeStyle;rounded=0;orthogonalLoop=1;jettySize=auto;html=1;exitX=0.25;exitY=0;exitDx=0;exitDy=0;entryX=0.5;entryY=1;entryDx=0;entryDy=0;" parent="1" source="e11LPDsxx33Z_SGylLZB-1" target="y7l_Vf18f22PjJahQDfY-35" edge="1">
          <mxGeometry relative="1" as="geometry" />
        </mxCell>
        <mxCell id="e11LPDsxx33Z_SGylLZB-1" value="&amp;nbsp;Put the node into children&#39;s list &amp;amp;&amp;amp; append info about its time slot" style="rounded=0;whiteSpace=wrap;html=1;rotation=0;fillColor=#FFFFFF;strokeColor=#000000;" parent="1" vertex="1">
          <mxGeometry x="685" y="405" width="160" height="65" as="geometry" />
        </mxCell>
        <mxCell id="e11LPDsxx33Z_SGylLZB-5" style="edgeStyle=orthogonalEdgeStyle;rounded=0;orthogonalLoop=1;jettySize=auto;html=1;entryX=1;entryY=0.5;entryDx=0;entryDy=0;exitX=0.75;exitY=1;exitDx=0;exitDy=0;" parent="1" source="GB7mApdc-Wd5zaGxchms-9" target="e11LPDsxx33Z_SGylLZB-1" edge="1">
          <mxGeometry relative="1" as="geometry">
            <mxPoint x="880" y="462.5" as="sourcePoint" />
          </mxGeometry>
        </mxCell>
        <mxCell id="j8B-hogCdlEwoJQSpi2J-2" value="Update the algorithm (*K) " style="text;html=1;strokeColor=none;fillColor=none;align=center;verticalAlign=middle;whiteSpace=wrap;rounded=0;" parent="1" vertex="1">
          <mxGeometry x="260" y="913.5" width="95" height="28" as="geometry" />
        </mxCell>
        <mxCell id="n4_W6Bm8d8PjsMYZMqAp-1" value="&lt;div&gt;If data == Child confirmation &lt;br&gt;&lt;/div&gt;&lt;div&gt;for my potential child&lt;/div&gt;" style="text;whiteSpace=wrap;html=1;" parent="1" vertex="1">
          <mxGeometry x="910" y="400" width="112.5" height="40" as="geometry" />
        </mxCell>
        <mxCell id="n4_W6Bm8d8PjsMYZMqAp-3" value="&lt;div&gt;If data == Child confirmation&lt;/div&gt;&lt;div&gt;for my potential child &lt;/div&gt;" style="text;whiteSpace=wrap;html=1;" parent="1" vertex="1">
          <mxGeometry x="-125" y="516.88" width="175" height="50" as="geometry" />
        </mxCell>
        <mxCell id="n4_W6Bm8d8PjsMYZMqAp-7" style="edgeStyle=orthogonalEdgeStyle;rounded=0;orthogonalLoop=1;jettySize=auto;html=1;exitX=0.5;exitY=1;exitDx=0;exitDy=0;" parent="1" source="n4_W6Bm8d8PjsMYZMqAp-4" target="5HeQNC9SgE1nZ3gUrSCK-7" edge="1">
          <mxGeometry relative="1" as="geometry" />
        </mxCell>
        <mxCell id="n4_W6Bm8d8PjsMYZMqAp-4" value="LoRa Simulator (SW)" style="ellipse;whiteSpace=wrap;html=1;" parent="1" vertex="1">
          <mxGeometry x="1325" y="40" width="120" height="80" as="geometry" />
        </mxCell>
        <mxCell id="n4_W6Bm8d8PjsMYZMqAp-9" style="edgeStyle=orthogonalEdgeStyle;rounded=0;orthogonalLoop=1;jettySize=auto;html=1;exitX=0.5;exitY=0;exitDx=0;exitDy=0;endArrow=none;endFill=0;" parent="1" source="n4_W6Bm8d8PjsMYZMqAp-5" edge="1">
          <mxGeometry relative="1" as="geometry">
            <mxPoint x="1384.9615384615386" y="140" as="targetPoint" />
          </mxGeometry>
        </mxCell>
        <mxCell id="n4_W6Bm8d8PjsMYZMqAp-5" value="LoRa Node (HW)" style="ellipse;whiteSpace=wrap;html=1;" parent="1" vertex="1">
          <mxGeometry x="1325" y="155" width="120" height="80" as="geometry" />
        </mxCell>
        <mxCell id="n4_W6Bm8d8PjsMYZMqAp-10" value="OR" style="text;html=1;align=center;verticalAlign=middle;resizable=0;points=[];autosize=1;strokeColor=none;fillColor=none;" parent="1" vertex="1">
          <mxGeometry x="1380" y="125" width="40" height="30" as="geometry" />
        </mxCell>
        <mxCell id="n4_W6Bm8d8PjsMYZMqAp-11" value="" style="endArrow=classic;html=1;rounded=0;entryX=1;entryY=0;entryDx=0;entryDy=52.5;entryPerimeter=0;" parent="1" target="5HeQNC9SgE1nZ3gUrSCK-7" edge="1">
          <mxGeometry width="50" height="50" relative="1" as="geometry">
            <mxPoint x="1105" y="153" as="sourcePoint" />
            <mxPoint x="1205" y="160" as="targetPoint" />
          </mxGeometry>
        </mxCell>
        <mxCell id="n4_W6Bm8d8PjsMYZMqAp-12" value="pushEvent" style="text;html=1;align=center;verticalAlign=middle;resizable=0;points=[];autosize=1;strokeColor=none;fillColor=none;" parent="1" vertex="1">
          <mxGeometry x="1033" y="153" width="75" height="30" as="geometry" />
        </mxCell>
        <mxCell id="n4_W6Bm8d8PjsMYZMqAp-13" value="red colored - still to be implemented" style="text;html=1;align=center;verticalAlign=middle;resizable=0;points=[];autosize=1;strokeColor=none;fillColor=none;" parent="1" vertex="1">
          <mxGeometry x="-402.5" y="1210" width="210" height="30" as="geometry" />
        </mxCell>
      </root>
    </mxGraphModel>
  </diagram>
</mxfile>
